<mxfile host="app.diagrams.net" modified="2023-11-19T14:11:36.850Z" agent="Mozilla/5.0 (Windows NT 10.0; Win64; x64) AppleWebKit/537.36 (KHTML, like Gecko) Chrome/119.0.0.0 Safari/537.36" etag="aSZP4X8Qb9zOSt_3WawV" version="22.1.3" type="github">
  <diagram name="Page-1" id="9f46799a-70d6-7492-0946-bef42562c5a5">
    <mxGraphModel dx="1050" dy="603" grid="1" gridSize="10" guides="1" tooltips="1" connect="1" arrows="1" fold="1" page="1" pageScale="1" pageWidth="1100" pageHeight="850" background="none" math="0" shadow="0">
      <root>
        <mxCell id="0" />
        <mxCell id="1" parent="0" />
        <mxCell id="-X2ABf3lfd7ox0fuk6VC-1" value="&lt;div style=&quot;box-sizing: border-box; width: 100%; background-image: initial; background-position: initial; background-size: initial; background-repeat: initial; background-attachment: initial; background-origin: initial; background-clip: initial; padding: 2px; font-size: 13px;&quot;&gt;user&lt;br style=&quot;font-size: 13px;&quot;&gt;&lt;table style=&quot;font-size: 13px; width: 100%;&quot; cellpadding=&quot;2&quot; cellspacing=&quot;0&quot;&gt;&lt;tbody style=&quot;font-size: 13px;&quot;&gt;&lt;tr style=&quot;font-size: 13px;&quot;&gt;&lt;td style=&quot;font-size: 13px;&quot;&gt;PK,FK1&lt;/td&gt;&lt;td style=&quot;font-size: 13px;&quot;&gt;id&lt;/td&gt;&lt;/tr&gt;&lt;tr style=&quot;font-size: 13px;&quot;&gt;&lt;td style=&quot;font-size: 13px;&quot;&gt;&lt;br style=&quot;font-size: 13px;&quot;&gt;&lt;/td&gt;&lt;td style=&quot;font-size: 13px;&quot;&gt;&lt;br style=&quot;font-size: 13px;&quot;&gt;&lt;/td&gt;&lt;/tr&gt;&lt;tr style=&quot;font-size: 13px;&quot;&gt;&lt;td style=&quot;font-size: 13px;&quot;&gt;&lt;br style=&quot;font-size: 13px;&quot;&gt;&lt;br style=&quot;font-size: 13px;&quot;&gt;&lt;/td&gt;&lt;td style=&quot;font-size: 13px;&quot;&gt;email&amp;nbsp;&lt;br style=&quot;font-size: 13px;&quot;&gt;firstName&lt;br style=&quot;font-size: 13px;&quot;&gt;lastName&lt;br style=&quot;font-size: 13px;&quot;&gt;address&lt;br style=&quot;font-size: 13px;&quot;&gt;gender&lt;br style=&quot;font-size: 13px;&quot;&gt;roleid&lt;br style=&quot;font-size: 13px;&quot;&gt;createAt&lt;br style=&quot;font-size: 13px;&quot;&gt;updateAt&lt;/td&gt;&lt;/tr&gt;&lt;/tbody&gt;&lt;/table&gt;&lt;/div&gt;" style="verticalAlign=top;align=left;overflow=fill;html=1;whiteSpace=wrap;strokeWidth=2;perimeterSpacing=1;labelBackgroundColor=none;labelBorderColor=default;spacingTop=0;spacing=2;horizontal=1;fontStyle=0;fontSize=13;glass=0;" vertex="1" parent="1">
          <mxGeometry x="40" y="40" width="170" height="200" as="geometry" />
        </mxCell>
      </root>
    </mxGraphModel>
  </diagram>
</mxfile>
